<?xml version="1.0" encoding="UTF-8"?>
<svg xmlns="http://www.w3.org/2000/svg" xmlns:xlink="http://www.w3.org/1999/xlink" viewBox="0 0 3000 2000">
  <defs>
    <style>
      .uuid-50386b97-169b-47b9-b492-596c3bf8693a {
        fill: url(#uuid-89fcc114-ab73-43b0-980c-a0b4ef2aa553);
      }

      .uuid-50386b97-169b-47b9-b492-596c3bf8693a, .uuid-9f52a570-1d71-4de3-b5da-bd2df70c8f6d, .uuid-13e0cc2c-bfbe-4733-a909-002431e75106, .uuid-cc2caaab-ae21-4869-90e5-3985278e1f44, .uuid-b0522a8f-1ddd-43ec-a0d0-dbcc44ff5a14, .uuid-33d3bebe-7e89-49fb-8b3d-8617cf85a879, .uuid-13f76023-dd1c-4f52-87ab-35a017aacb86, .uuid-008f687b-8bc8-406c-b45e-1206136e4b10, .uuid-c76a83f0-8a96-451c-ac21-3d962f5e3811, .uuid-c1283e09-6db1-4e93-bd8f-264397e95930, .uuid-6bc40b30-5552-4066-b084-64da0087806a, .uuid-24723121-5b1c-4279-9723-b0315f6eb8ef, .uuid-7a5add3e-3340-483f-b8bc-cb83c319dea4, .uuid-9b7c2586-64e0-480d-bb93-449f6a9811b7, .uuid-e85b471f-9215-427d-847d-ba6433a82c8e, .uuid-e0b92dc8-df4e-4719-b566-180f5faea400, .uuid-7644502b-11be-496b-8e11-acff478b794b, .uuid-1ca131f7-487d-4206-8a91-d1a8aab3c16e, .uuid-3997efe8-8c97-4962-9bd2-20581daa6500, .uuid-f1989ab5-ca55-426e-88c5-bef9a14774ee, .uuid-63805188-a3de-45b6-955d-f041a0a20f86, .uuid-03fb111b-9b95-42a5-a0d1-4a600d0fca7b, .uuid-4f4b8f36-8910-41b1-93d5-1942178377b4, .uuid-bd559625-54a0-46b4-8416-08be27403237, .uuid-fc8b7532-06ce-4b5f-b285-ab3a4f3c4d55, .uuid-7ae4f08f-b06e-42ca-9a5a-1f90f23a3640, .uuid-452be6d1-1c33-4d45-8bb2-a6c854dbfa04, .uuid-0afc239c-0439-40c0-af0f-953861afb6c3, .uuid-8497d1f2-607b-4426-bc9d-ea8d93726bad, .uuid-57e883d8-bf05-4131-a1bc-c772f5383ddb, .uuid-1953a60e-a44e-40c6-8e88-a22033e9c11c, .uuid-25b46d09-589c-4398-a514-818f2952653c, .uuid-f846a94c-3a63-4137-b3dc-74c8423aecec, .uuid-80bd2ec5-51bb-4c04-887b-e8d3549b0839, .uuid-cbdb7cb3-cf81-4532-9f83-c0380699121f, .uuid-71fdd2ae-57c1-438d-a47f-bb41853be8af, .uuid-3addc039-bb02-4006-9a70-44ea0b109984, .uuid-0333dbd9-d9bd-4250-80e8-2c54cb7e80cc, .uuid-eeb6f552-80cf-49c0-8581-e48e486c2b8e, .uuid-c75e9b85-04b2-4d9a-9552-3933872f492f, .uuid-e82efcc5-7497-47a2-91ee-eddcbdb70e69, .uuid-07cef32c-5894-4e27-bfb1-593d72283940, .uuid-41509be7-18ed-4611-8374-27aa8b728667, .uuid-8eb3032f-4f87-475a-9932-dd971d82531c, .uuid-96c52b37-be64-4f0b-8f92-8aa4832741de, .uuid-4f50e594-69a9-4608-9812-695aa01e231b, .uuid-50d85c2e-c597-4a7c-9d31-d0d758d7a4ed {
        stroke-width: 0px;
      }

      .uuid-9f52a570-1d71-4de3-b5da-bd2df70c8f6d {
        fill: url(#uuid-41489ca3-309f-4187-b508-5a56c4a26ffb);
      }

      .uuid-13e0cc2c-bfbe-4733-a909-002431e75106 {
        fill: url(#uuid-33da26f8-3ca7-4aca-a9cf-b55e41cbcc65);
      }

      .uuid-cc2caaab-ae21-4869-90e5-3985278e1f44 {
        fill: url(#uuid-b1f8ec61-ad0d-41a3-8b82-155212334080);
      }

      .uuid-b0522a8f-1ddd-43ec-a0d0-dbcc44ff5a14 {
        fill: url(#uuid-2fd80edb-36c5-45a4-a557-864f5fa9625b);
      }

      .uuid-33d3bebe-7e89-49fb-8b3d-8617cf85a879 {
        fill: url(#uuid-9fa55215-6996-4500-ac13-8daed0e50483);
      }

      .uuid-13f76023-dd1c-4f52-87ab-35a017aacb86 {
        fill: url(#uuid-ce84dcdf-26fd-487b-9e81-9bae2d77649d);
      }

      .uuid-008f687b-8bc8-406c-b45e-1206136e4b10 {
        fill: url(#uuid-85736c30-3a1a-46cf-bc6d-cb9100978006);
      }

      .uuid-c76a83f0-8a96-451c-ac21-3d962f5e3811 {
        fill: url(#uuid-0631560d-5296-441e-a1b2-fc76773c8cc4);
      }

      .uuid-85a9b685-f557-439a-bbac-6f1fcb75873e {
        isolation: isolate;
      }

      .uuid-c1283e09-6db1-4e93-bd8f-264397e95930 {
        fill: url(#uuid-5476f22e-429f-46c2-8677-f027bcb216c3);
      }

      .uuid-6bc40b30-5552-4066-b084-64da0087806a {
        fill: url(#uuid-75c88b74-2be7-4933-a712-2b50b9d447c2);
      }

      .uuid-24723121-5b1c-4279-9723-b0315f6eb8ef {
        fill: #999b9e;
      }

      .uuid-7a5add3e-3340-483f-b8bc-cb83c319dea4 {
        fill: url(#uuid-a2298f41-b523-498c-9537-2eec97e0da0a);
      }

      .uuid-9b7c2586-64e0-480d-bb93-449f6a9811b7 {
        fill: url(#uuid-c436a23b-2322-4338-8bcf-d810693fd8e6);
      }

      .uuid-e85b471f-9215-427d-847d-ba6433a82c8e {
        fill: #f5f5f5;
      }

      .uuid-e0b92dc8-df4e-4719-b566-180f5faea400 {
        fill: url(#uuid-5c25b88e-4538-40a0-bfea-f5f33ba9ccea);
      }

      .uuid-e0b92dc8-df4e-4719-b566-180f5faea400, .uuid-1ca131f7-487d-4206-8a91-d1a8aab3c16e {
        mix-blend-mode: screen;
      }

      .uuid-7644502b-11be-496b-8e11-acff478b794b {
        fill: url(#uuid-4d826840-cb90-4668-8baf-c63f4a716f9d);
      }

      .uuid-1ca131f7-487d-4206-8a91-d1a8aab3c16e {
        fill: url(#uuid-eb52d3ec-f9fb-45ac-87ed-1d3e01e084ec);
      }

      .uuid-3997efe8-8c97-4962-9bd2-20581daa6500 {
        fill: url(#uuid-b965c5ea-9b26-431c-8002-e04a61c185b2);
      }

      .uuid-f1989ab5-ca55-426e-88c5-bef9a14774ee {
        fill: url(#uuid-a0c44f67-dde6-4a2b-931e-5591eacff57f);
      }

      .uuid-63805188-a3de-45b6-955d-f041a0a20f86 {
        fill: url(#uuid-1637d4f7-9ba6-4805-b691-e45d037d6786);
      }

      .uuid-03fb111b-9b95-42a5-a0d1-4a600d0fca7b {
        fill: url(#uuid-4d6faa4b-7083-4650-ba05-482e175f9374);
      }

      .uuid-4f4b8f36-8910-41b1-93d5-1942178377b4 {
        fill: url(#uuid-2f90c79c-f540-4ce4-8a73-74c524d423ef);
      }

      .uuid-bd559625-54a0-46b4-8416-08be27403237 {
        fill: url(#uuid-60fd9f73-718e-423f-923d-cb298f655a2f);
      }

      .uuid-fc8b7532-06ce-4b5f-b285-ab3a4f3c4d55 {
        fill: #fff;
      }

      .uuid-7ae4f08f-b06e-42ca-9a5a-1f90f23a3640 {
        fill: url(#uuid-3565b772-0f69-469a-abcc-20d6e98bfc97);
      }

      .uuid-452be6d1-1c33-4d45-8bb2-a6c854dbfa04 {
        fill: url(#uuid-807615bc-64b9-401f-b28e-f1afc4eef099);
      }

      .uuid-452be6d1-1c33-4d45-8bb2-a6c854dbfa04, .uuid-57e883d8-bf05-4131-a1bc-c772f5383ddb, .uuid-0333dbd9-d9bd-4250-80e8-2c54cb7e80cc {
        mix-blend-mode: multiply;
      }

      .uuid-0afc239c-0439-40c0-af0f-953861afb6c3 {
        fill: url(#uuid-cac6a8bd-56ea-4684-8041-8240d76bace1);
      }

      .uuid-8497d1f2-607b-4426-bc9d-ea8d93726bad {
        fill: url(#uuid-8b90ea3b-2f3a-42c6-b5c5-f4735cf943ab);
      }

      .uuid-57e883d8-bf05-4131-a1bc-c772f5383ddb {
        fill: url(#uuid-1d1fdf54-e7ec-47ae-83a1-9a7f118f0841);
      }

      .uuid-1953a60e-a44e-40c6-8e88-a22033e9c11c {
        fill: url(#uuid-00e7de8e-b6af-47e5-905f-46667187c127);
      }

      .uuid-e18dd96a-1560-4fb5-947f-22fbf2cdf87d {
        mask: url(#uuid-d1d015d8-b339-4498-8afd-d3c1c0f8bdaa);
      }

      .uuid-25b46d09-589c-4398-a514-818f2952653c {
        fill: url(#uuid-9835dbaa-8056-4f85-be72-de1dcf654354);
      }

      .uuid-f846a94c-3a63-4137-b3dc-74c8423aecec {
        fill: url(#uuid-db0c367d-9c8a-45d4-a660-10b35787eec2);
      }

      .uuid-80bd2ec5-51bb-4c04-887b-e8d3549b0839 {
        fill: url(#uuid-fb6785d3-ccd2-4464-b36d-61fbe174e1ba);
      }

      .uuid-cbdb7cb3-cf81-4532-9f83-c0380699121f {
        fill: url(#uuid-ffe754f4-9eac-45ff-971b-b55788636d9d);
      }

      .uuid-71fdd2ae-57c1-438d-a47f-bb41853be8af {
        fill: url(#uuid-88d828df-0276-46c6-937f-36e2eca8b44b);
      }

      .uuid-3addc039-bb02-4006-9a70-44ea0b109984 {
        fill: url(#uuid-b16cd1d2-d98f-4239-9bea-47a2dcf44e9d);
      }

      .uuid-0333dbd9-d9bd-4250-80e8-2c54cb7e80cc {
        fill: url(#uuid-ddcc3498-b461-4d54-9bc0-9b874f17cfb4);
      }

      .uuid-eeb6f552-80cf-49c0-8581-e48e486c2b8e {
        fill: url(#uuid-abea3577-d5fd-41da-a863-eb35292ca9fc);
      }

      .uuid-c75e9b85-04b2-4d9a-9552-3933872f492f {
        fill: url(#uuid-6e7983f8-3d6f-41e5-863f-5206dbe331f2);
      }

      .uuid-e82efcc5-7497-47a2-91ee-eddcbdb70e69 {
        fill: url(#uuid-2639b089-1d50-48e4-b7e7-529ace17d886);
      }

      .uuid-07cef32c-5894-4e27-bfb1-593d72283940 {
        fill: url(#uuid-fcfc1e64-b214-4ff7-8fb4-1c774a2a4dad);
      }

      .uuid-41509be7-18ed-4611-8374-27aa8b728667 {
        fill: url(#uuid-e0768166-0da2-4a44-93b3-613c2f8ff789);
      }

      .uuid-8eb3032f-4f87-475a-9932-dd971d82531c {
        fill: url(#uuid-24de3b31-6b8e-4d35-9015-544909ede047);
      }

      .uuid-96c52b37-be64-4f0b-8f92-8aa4832741de {
        fill: url(#uuid-4df901e9-1ac4-4b3d-a9c2-8757006845b1);
      }

      .uuid-4f50e594-69a9-4608-9812-695aa01e231b {
        fill: url(#uuid-4ee24c66-2077-4876-80c6-94b6c3d7cc79);
      }

      .uuid-50d85c2e-c597-4a7c-9d31-d0d758d7a4ed {
        fill: url(#uuid-dc450204-9cb9-48d5-b65b-340aab478553);
      }
    </style>
    <linearGradient id="uuid-a2298f41-b523-498c-9537-2eec97e0da0a" x1="1541.2" y1="1130.68" x2="1541.2" y2="1875.14" gradientUnits="userSpaceOnUse">
      <stop offset="0" stop-color="#fff"/>
      <stop offset=".06" stop-color="#d8d8d8"/>
      <stop offset=".16" stop-color="#a6a6a6"/>
      <stop offset=".26" stop-color="#797979"/>
      <stop offset=".37" stop-color="#545454"/>
      <stop offset=".47" stop-color="#353535"/>
      <stop offset=".59" stop-color="#1d1d1d"/>
      <stop offset=".71" stop-color="#0d0d0d"/>
      <stop offset=".84" stop-color="#030303"/>
      <stop offset="1" stop-color="#000"/>
    </linearGradient>
    <mask id="uuid-d1d015d8-b339-4498-8afd-d3c1c0f8bdaa" data-name="mask" x="933.72" y="1202.14" width="1214.96" height="1182.17" maskUnits="userSpaceOnUse">
      <rect class="uuid-7a5add3e-3340-483f-b8bc-cb83c319dea4" x="933.72" y="1202.14" width="1214.96" height="1182.17"/>
    </mask>
    <radialGradient id="uuid-b16cd1d2-d98f-4239-9bea-47a2dcf44e9d" cx="1541.54" cy="-94.03" fx="1541.54" fy="-94.03" r="507.89" gradientTransform="translate(0 1690.9) scale(1 -.93)" gradientUnits="userSpaceOnUse">
      <stop offset="0" stop-color="#fff"/>
      <stop offset=".19" stop-color="#f9f9f9"/>
      <stop offset=".45" stop-color="#e8e8e8"/>
      <stop offset=".74" stop-color="#cdcdcd"/>
      <stop offset=".96" stop-color="#b3b3b3"/>
    </radialGradient>
    <radialGradient id="uuid-41489ca3-309f-4187-b508-5a56c4a26ffb" cx="1738.51" cy="-393.68" fx="1738.51" fy="-393.68" r="536.43" xlink:href="#uuid-b16cd1d2-d98f-4239-9bea-47a2dcf44e9d"/>
    <radialGradient id="uuid-89fcc114-ab73-43b0-980c-a0b4ef2aa553" cx="1450.36" cy="369.39" fx="1450.36" fy="369.39" r="282.1" xlink:href="#uuid-b16cd1d2-d98f-4239-9bea-47a2dcf44e9d"/>
    <radialGradient id="uuid-5476f22e-429f-46c2-8677-f027bcb216c3" cx="1827.18" cy="-11.38" fx="1827.18" fy="-11.38" r="337.9" xlink:href="#uuid-b16cd1d2-d98f-4239-9bea-47a2dcf44e9d"/>
    <radialGradient id="uuid-abea3577-d5fd-41da-a863-eb35292ca9fc" cx="1559.11" cy="128.23" fx="1559.11" fy="128.23" r="375.25" xlink:href="#uuid-b16cd1d2-d98f-4239-9bea-47a2dcf44e9d"/>
    <radialGradient id="uuid-4df901e9-1ac4-4b3d-a9c2-8757006845b1" cx="1236.72" cy="35.16" fx="1236.72" fy="35.16" r="629.3" xlink:href="#uuid-b16cd1d2-d98f-4239-9bea-47a2dcf44e9d"/>
    <radialGradient id="uuid-3565b772-0f69-469a-abcc-20d6e98bfc97" cx="1638.69" cy="-238.78" fx="1638.69" fy="-238.78" r="414.77" xlink:href="#uuid-b16cd1d2-d98f-4239-9bea-47a2dcf44e9d"/>
    <radialGradient id="uuid-ffe754f4-9eac-45ff-971b-b55788636d9d" cx="1146.62" cy="180.32" fx="1146.62" fy="180.32" r="417.68" xlink:href="#uuid-b16cd1d2-d98f-4239-9bea-47a2dcf44e9d"/>
    <radialGradient id="uuid-fcfc1e64-b214-4ff7-8fb4-1c774a2a4dad" cx="1335" cy="-78.03" fx="1335" fy="-78.03" r="603.7" xlink:href="#uuid-b16cd1d2-d98f-4239-9bea-47a2dcf44e9d"/>
    <radialGradient id="uuid-33da26f8-3ca7-4aca-a9cf-b55e41cbcc65" cx="1098.62" cy="-229.52" fx="1098.62" fy="-229.52" r="423.32" xlink:href="#uuid-b16cd1d2-d98f-4239-9bea-47a2dcf44e9d"/>
    <radialGradient id="uuid-b1f8ec61-ad0d-41a3-8b82-155212334080" cx="1114.26" cy="-39.66" fx="1114.26" fy="-39.66" r="396.39" gradientTransform="translate(0 1690.9) scale(1 -.93)" gradientUnits="userSpaceOnUse">
      <stop offset=".33" stop-color="#fff"/>
      <stop offset=".68" stop-color="#b7b7b9"/>
      <stop offset="1" stop-color="#8a8893"/>
    </radialGradient>
    <radialGradient id="uuid-2639b089-1d50-48e4-b7e7-529ace17d886" cx="827.23" cy="-485.11" fx="827.23" fy="-485.11" r="1241.69" gradientTransform="translate(0 1690.9) scale(1 -.93)" gradientUnits="userSpaceOnUse">
      <stop offset="0" stop-color="#212121"/>
      <stop offset="1" stop-color="#000"/>
    </radialGradient>
    <radialGradient id="uuid-75c88b74-2be7-4933-a712-2b50b9d447c2" cx="827.19" cy="-485.17" fx="827.19" fy="-485.17" r="1241.79" xlink:href="#uuid-2639b089-1d50-48e4-b7e7-529ace17d886"/>
    <radialGradient id="uuid-b965c5ea-9b26-431c-8002-e04a61c185b2" cx="827.24" cy="-485.2" fx="827.24" fy="-485.2" r="1241.8" xlink:href="#uuid-2639b089-1d50-48e4-b7e7-529ace17d886"/>
    <radialGradient id="uuid-1637d4f7-9ba6-4805-b691-e45d037d6786" cx="1003.69" cy="3.89" fx="1003.69" fy="3.89" r="387.01" xlink:href="#uuid-2639b089-1d50-48e4-b7e7-529ace17d886"/>
    <radialGradient id="uuid-eb52d3ec-f9fb-45ac-87ed-1d3e01e084ec" cx="1260.83" cy="-305.9" fx="1260.83" fy="-305.9" r="331.16" gradientTransform="translate(0 1690.9) scale(1 -.93)" gradientUnits="userSpaceOnUse">
      <stop offset="0" stop-color="#787878"/>
      <stop offset="1" stop-color="#000"/>
    </radialGradient>
    <radialGradient id="uuid-ddcc3498-b461-4d54-9bc0-9b874f17cfb4" cx="1413.12" cy="-146.49" fx="1413.12" fy="-146.49" r="649.2" gradientTransform="translate(0 1690.9) scale(1 -.93)" gradientUnits="userSpaceOnUse">
      <stop offset=".46" stop-color="#fff"/>
      <stop offset=".6" stop-color="#fbfbfb"/>
      <stop offset=".73" stop-color="#efefef"/>
      <stop offset=".78" stop-color="#eaeaea"/>
      <stop offset=".87" stop-color="#e7e7e7"/>
      <stop offset=".93" stop-color="#c2c2c2"/>
      <stop offset=".98" stop-color="#9e9e9e"/>
      <stop offset="1" stop-color="#696969"/>
    </radialGradient>
    <radialGradient id="uuid-807615bc-64b9-401f-b28e-f1afc4eef099" cx="1567.59" cy="3017.02" fx="1567.59" fy="3017.02" r="877.63" gradientTransform="translate(76.6 690.11) scale(.92 .19)" gradientUnits="userSpaceOnUse">
      <stop offset=".22" stop-color="#1f1f1f"/>
      <stop offset=".26" stop-color="#696969"/>
      <stop offset=".35" stop-color="#b3b3b3"/>
      <stop offset=".41" stop-color="silver"/>
      <stop offset=".56" stop-color="#dcdcdc"/>
      <stop offset=".7" stop-color="#efefef"/>
      <stop offset=".85" stop-color="#fbfbfb"/>
      <stop offset="1" stop-color="#fff"/>
    </radialGradient>
    <radialGradient id="uuid-e0768166-0da2-4a44-93b3-613c2f8ff789" cy="796.07" fy="796.07" r="508.09" gradientTransform="matrix(1,0,0,1,0,0)" xlink:href="#uuid-b16cd1d2-d98f-4239-9bea-47a2dcf44e9d"/>
    <radialGradient id="uuid-ce84dcdf-26fd-487b-9e81-9bae2d77649d" cx="1738.49" cy="496.43" fx="1738.49" fy="496.43" r="536.44" gradientTransform="matrix(1,0,0,1,0,0)" xlink:href="#uuid-b16cd1d2-d98f-4239-9bea-47a2dcf44e9d"/>
    <radialGradient id="uuid-2fd80edb-36c5-45a4-a557-864f5fa9625b" cx="1450.36" cy="1259.49" fx="1450.36" fy="1259.49" r="282.11" gradientTransform="matrix(1,0,0,1,0,0)" xlink:href="#uuid-b16cd1d2-d98f-4239-9bea-47a2dcf44e9d"/>
    <radialGradient id="uuid-c436a23b-2322-4338-8bcf-d810693fd8e6" cx="1827.18" cy="878.7" fx="1827.18" fy="878.7" r="337.89" gradientTransform="matrix(1,0,0,1,0,0)" xlink:href="#uuid-b16cd1d2-d98f-4239-9bea-47a2dcf44e9d"/>
    <radialGradient id="uuid-24de3b31-6b8e-4d35-9015-544909ede047" cx="1559.11" cy="1018.29" fx="1559.11" fy="1018.29" r="375.29" gradientTransform="matrix(1,0,0,1,0,0)" xlink:href="#uuid-b16cd1d2-d98f-4239-9bea-47a2dcf44e9d"/>
    <radialGradient id="uuid-9fa55215-6996-4500-ac13-8daed0e50483" cx="1236.72" cy="925.21" fx="1236.72" fy="925.21" r="629.4" gradientTransform="matrix(1,0,0,1,0,0)" xlink:href="#uuid-b16cd1d2-d98f-4239-9bea-47a2dcf44e9d"/>
    <radialGradient id="uuid-fb6785d3-ccd2-4464-b36d-61fbe174e1ba" cx="1052.11" cy="547.05" fx="1052.11" fy="547.05" r="608.58" gradientTransform="matrix(1,0,0,1,0,0)" xlink:href="#uuid-b16cd1d2-d98f-4239-9bea-47a2dcf44e9d"/>
    <radialGradient id="uuid-dc450204-9cb9-48d5-b65b-340aab478553" cx="1474.93" cy="250.78" fx="1474.93" fy="250.78" r="330.52" gradientTransform="matrix(1,0,0,1,0,0)" xlink:href="#uuid-b16cd1d2-d98f-4239-9bea-47a2dcf44e9d"/>
    <radialGradient id="uuid-4ee24c66-2077-4876-80c6-94b6c3d7cc79" cx="1638.72" cy="651.3" fx="1638.72" fy="651.3" r="414.76" gradientTransform="matrix(1,0,0,1,0,0)" xlink:href="#uuid-b16cd1d2-d98f-4239-9bea-47a2dcf44e9d"/>
    <radialGradient id="uuid-8b90ea3b-2f3a-42c6-b5c5-f4735cf943ab" cx="1146.61" cy="1070.38" fx="1146.61" fy="1070.38" r="417.69" gradientTransform="matrix(1,0,0,1,0,0)" xlink:href="#uuid-b16cd1d2-d98f-4239-9bea-47a2dcf44e9d"/>
    <radialGradient id="uuid-4d6faa4b-7083-4650-ba05-482e175f9374" cx="1335.01" cy="812.08" fx="1335.01" fy="812.08" r="603.69" gradientTransform="matrix(1,0,0,1,0,0)" xlink:href="#uuid-b16cd1d2-d98f-4239-9bea-47a2dcf44e9d"/>
    <radialGradient id="uuid-00e7de8e-b6af-47e5-905f-46667187c127" cx="1500.24" cy="261.25" fx="1500.24" fy="261.25" r="202.51" gradientTransform="matrix(1,0,0,1,0,0)" xlink:href="#uuid-b1f8ec61-ad0d-41a3-8b82-155212334080"/>
    <radialGradient id="uuid-6e7983f8-3d6f-41e5-863f-5206dbe331f2" cx="1098.63" cy="660.58" fx="1098.63" fy="660.58" r="423.27" gradientTransform="matrix(1,0,0,1,0,0)" xlink:href="#uuid-b16cd1d2-d98f-4239-9bea-47a2dcf44e9d"/>
    <radialGradient id="uuid-cac6a8bd-56ea-4684-8041-8240d76bace1" cx="1416.87" cy="497.93" fx="1416.87" fy="497.93" r="498.73" gradientTransform="matrix(1,0,0,1,0,0)" xlink:href="#uuid-b16cd1d2-d98f-4239-9bea-47a2dcf44e9d"/>
    <radialGradient id="uuid-db0c367d-9c8a-45d4-a660-10b35787eec2" cx="987" cy="514.29" fx="987" fy="514.29" r="449.11" gradientTransform="matrix(1,0,0,1,0,0)" xlink:href="#uuid-b1f8ec61-ad0d-41a3-8b82-155212334080"/>
    <radialGradient id="uuid-60fd9f73-718e-423f-923d-cb298f655a2f" cy="850.43" fy="850.43" r="396.41" gradientTransform="matrix(1,0,0,1,0,0)" xlink:href="#uuid-b1f8ec61-ad0d-41a3-8b82-155212334080"/>
    <radialGradient id="uuid-a0c44f67-dde6-4a2b-931e-5591eacff57f" cx="1454.84" cy="411.56" fx="1454.84" fy="411.56" r="289.82" gradientUnits="userSpaceOnUse">
      <stop offset=".18" stop-color="#fff"/>
      <stop offset=".68" stop-color="#b7b7b9"/>
      <stop offset="1" stop-color="#8a8893"/>
    </radialGradient>
    <radialGradient id="uuid-0631560d-5296-441e-a1b2-fc76773c8cc4" cy="404.93" fy="404.93" r="1241.74" gradientTransform="matrix(1,0,0,1,0,0)" xlink:href="#uuid-2639b089-1d50-48e4-b7e7-529ace17d886"/>
    <radialGradient id="uuid-9835dbaa-8056-4f85-be72-de1dcf654354" cx="827.2" cy="404.87" fx="827.2" fy="404.87" r="1241.82" gradientTransform="matrix(1,0,0,1,0,0)" xlink:href="#uuid-2639b089-1d50-48e4-b7e7-529ace17d886"/>
    <radialGradient id="uuid-88d828df-0276-46c6-937f-36e2eca8b44b" cx="1213.67" cy="360.18" fx="1213.67" fy="360.18" r="495.79" gradientTransform="matrix(1,0,0,1,0,0)" xlink:href="#uuid-2639b089-1d50-48e4-b7e7-529ace17d886"/>
    <radialGradient id="uuid-4d826840-cb90-4668-8baf-c63f4a716f9d" cx="827.24" cy="404.87" fx="827.24" fy="404.87" r="1241.85" gradientTransform="matrix(1,0,0,1,0,0)" xlink:href="#uuid-2639b089-1d50-48e4-b7e7-529ace17d886"/>
    <radialGradient id="uuid-2f90c79c-f540-4ce4-8a73-74c524d423ef" cx="827.21" cy="404.88" fx="827.21" fy="404.88" r="1241.85" gradientTransform="matrix(1,0,0,1,0,0)" xlink:href="#uuid-2639b089-1d50-48e4-b7e7-529ace17d886"/>
    <radialGradient id="uuid-85736c30-3a1a-46cf-bc6d-cb9100978006" cx="1003.68" cy="893.97" fx="1003.68" fy="893.97" r="387.04" gradientTransform="matrix(1,0,0,1,0,0)" xlink:href="#uuid-2639b089-1d50-48e4-b7e7-529ace17d886"/>
    <radialGradient id="uuid-5c25b88e-4538-40a0-bfea-f5f33ba9ccea" cx="1260.83" cy="584.19" fx="1260.83" fy="584.19" r="331.11" gradientTransform="matrix(1,0,0,1,0,0)" xlink:href="#uuid-eb52d3ec-f9fb-45ac-87ed-1d3e01e084ec"/>
    <radialGradient id="uuid-1d1fdf54-e7ec-47ae-83a1-9a7f118f0841" cx="1413.12" cy="743.6" fx="1413.12" fy="743.6" r="649.22" gradientTransform="matrix(1,0,0,1,0,0)" xlink:href="#uuid-ddcc3498-b461-4d54-9bc0-9b874f17cfb4"/>
  </defs>
  <g class="uuid-85a9b685-f557-439a-bbac-6f1fcb75873e">
    <g id="uuid-2360d908-ec61-4ce4-b262-b5c00a7652f0" data-name="BG">
      <rect class="uuid-fc8b7532-06ce-4b5f-b285-ab3a4f3c4d55" width="3000" height="2000"/>
    </g>
    <g id="uuid-514c5bfd-3d6a-4081-8d4b-8ce344cfe1d3" data-name="Layer 1">
      <g>
        <g class="uuid-e18dd96a-1560-4fb5-947f-22fbf2cdf87d">
          <g>
            <g>
              <path class="uuid-3addc039-bb02-4006-9a70-44ea0b109984" d="m2049.26,1765.12c-7.71-255.79-231.98-460.96-507.7-460.96s-500.04,205.17-507.74,460.96h1015.44Z"/>
              <path class="uuid-9f52a570-1d71-4de3-b5da-bd2df70c8f6d" d="m2049.21,1765.12c0-.78-.04-1.55-.04-2.33l-37.08-38.31-38.58,40.63h75.7Z"/>
              <path class="uuid-50386b97-169b-47b9-b492-596c3bf8693a" d="m1410.78,1320.12c41.72-10.4,85.55-15.96,130.79-15.96,31.15,0,61.61,2.74,91.21,7.75l-17.15,33.16-203.07-5.2-1.77-19.74Z"/>
              <path class="uuid-c1283e09-6db1-4e93-bd8f-264397e95930" d="m2003.8,1716.69l-65.4-167.64,7.02-58.19c62.15,75.98,100.19,170.01,103.75,272.16l-45.38-46.33Z"/>
              <path class="uuid-eeb6f552-80cf-49c0-8581-e48e486c2b8e" d="m1945.97,1491.45l-7.57,57.6-125.27-9.07-178.03-123.45-30.37-82.5,21.62-23.17c129.83,20.34,243.07,86.69,319.63,180.59Z"/>
              <path class="uuid-96c52b37-be64-4f0b-8f92-8aa4832741de" d="m1134.33,1562.09l-50.66,10.76c63.66-123.31,182.77-216.93,327.11-252.73l1.77,19.74,1.37,5.2-73.74,67.53-205.85,149.49Z"/>
              <path class="uuid-7ae4f08f-b06e-42ca-9a5a-1f90f23a3640" d="m1924.17,1765.12c-29.09-38.63-104.07-88.7-104.07-88.7,0,0-172.51,67.49-226.74,76.66-7.48,1.23-13.95,5.7-19.7,12.04h350.51Z"/>
              <path class="uuid-cbdb7cb3-cf81-4532-9f83-c0380699121f" d="m1105.1,1700.45c27.04,16.14,117.97,50.21,157.38,64.67h34.25c38.44-16.92,135.26-60.84,135.26-74.43,0-16.87,33.43-231.25,33.43-231.25,0,0,19.47-97.5-97.41-61.11-116.83,36.39-247.94,153.5-247.94,153.5,0,0-49.76,127.83-14.96,148.62Z"/>
              <path class="uuid-24723121-5b1c-4279-9723-b0315f6eb8ef" d="m1626.25,1765.12c1.91-6.25,3.15-10.04,3.15-10.04,0,0,74.06-21.98,89.75-27.82,51.35-19.11,83-31.96,88.2-37.9,2-2.28-2.24-3.79-8.17-4.88-43.27,16.55-142.78,53.77-192.53,65.76l-3.97,14.87h23.58Z"/>
              <path class="uuid-fc8b7532-06ce-4b5f-b285-ab3a4f3c4d55" d="m1810.94,1538.42l-175.84-121.9-30.37-82.5,21.62-23.17h.05l-18.56,21.43s18.74,24.53,26.22,35.98c7.48,11.49,21.48,37.12,21.48,37.12,0,0,48.02,30.01,89.06,58.69,31.51,21.98,70.91,53.67,75.43,59.97,2.37,3.42-3.33,9.48-9.07,14.36Z"/>
              <path class="uuid-24723121-5b1c-4279-9723-b0315f6eb8ef" d="m1436.95,1614.81s1.19-59.46,4.52-82.95c3.28-23.44,9.48-52.67,9.48-52.67,0,0-31.83-18.74-67.54-33.88-33.61-14.18-61.79-25.95-65.12-27.31.14-.09.32-.14.41-.18l76.93-5.88,64.8,55.82,2.88,5.11c-4.2,26.95-13.82,89.57-21.3,141.05-1.69,1.23-3.38,1.6-5.06.91Z"/>
              <path class="uuid-07cef32c-5894-4e27-bfb1-593d72283940" d="m1487.29,1765.12h61.43c137.44-22.21,265.77-75.75,265.77-75.75l13.95-5.15s51.48-98.78,9.76-144.24c-41.73-45.46-197.05-137.95-197.05-137.95l-175.48,50.16s-10.03,30.6-18.56,80.63c-6.38,37.58-11.17,110.58-11.17,110.58-4.56,25.54-18.83,105.43,51.35,121.72Z"/>
              <path class="uuid-fc8b7532-06ce-4b5f-b285-ab3a4f3c4d55" d="m1647.27,1405.99s-63.66,17.74-92.26,29.23c-28.73,11.45-91.2,41.68-91.2,41.68,0,0-5.61,39.95-8.21,56.05-3.74,22.94-7.48,72.28-7.48,72.28,0,0,39.08,30.24,86.74,66.4,40.5,30.74,77.34,68.09,87.56,78.67-5.29,1.27-10.62,2.51-16.01,3.65-34.98-6.61-87.51-46.15-87.51-46.15l-82.22-75.2c1.59-21.71,5.56-71.05,10.44-99.78,8.53-50.03,18.56-80.63,18.56-80.63l151.54-43.32,30.05-2.88Z"/>
              <path class="uuid-fc8b7532-06ce-4b5f-b285-ab3a4f3c4d55" d="m1946.38,1492.09l-1.28,44.28s29,45.92,48.02,91.8c15.64,37.9,20.79,71.64,23.39,88.33,1.1,7.16.05,10.53-1.09,12.04l-5.74-5.8-8.76-13.22-62.52-160.48,5.38-44.87c1.1-4.56,1.91-8.8,2.51-12.27.05.09.09.14.09.18Z"/>
              <path class="uuid-24723121-5b1c-4279-9723-b0315f6eb8ef" d="m1821.48,1642.44c-7.48,27.09-15.28,49.57-15.28,49.57,0,0,4.1-60.38,4.88-93.07.73-32.65-1.5-75.75-1.5-75.75,0,0-48.02-38.62-65.89-51.48-17.88-12.81-96.41-65.72-96.41-65.72.23,0,.5.09.73.09,26.91,16.28,127.1,77.75,174.8,119.2,1.05,16.37,5.34,92.98-1.32,117.15Z"/>
              <path class="uuid-13e0cc2c-bfbe-4733-a909-002431e75106" d="m1262.02,1765.12c-45.6-18.43-145.57-58.47-154.09-59.51-6.43-.73-24.26,31.69-38.31,59.51h192.4Z"/>
              <path class="uuid-24723121-5b1c-4279-9723-b0315f6eb8ef" d="m1884.32,1545.12l-3.33-.78s-62.93-11.63-63.66-23.85c0,0,35.85.28,57,2.33,21.25,2.1,62.16,9.03,62.16,9.03,0,0,7.39-31.24,9.17-40.68.09.09.18.18.32.27l-7.57,57.6-54.09-3.92Z"/>
              <path class="uuid-24723121-5b1c-4279-9723-b0315f6eb8ef" d="m1087.45,1765.12c1.46-2.6,2.92-5.2,4.43-7.57,17.05-26.77,31.65-43.14,31.65-43.14l125.86,46.56-.18-1c-49.3-19.84-130.06-54.04-137.9-54.95-6.43-.73-26.63,32.15-41.45,60.1h17.6Z"/>
              <path class="uuid-cc2caaab-ae21-4869-90e5-3985278e1f44" d="m1138.07,1540.88s-9.03,48.07-11.54,90.07c-1.23,20.52,1.96,75.61,1.96,75.61,0,0,101.93,44.69,120.71,53.4.64.28,1.05.5,1.27.73-43.5-16.1-119.25-45.74-143.79-60.38l-1.73-6.43,8.16-119.25.96-6.11c3.47-10.21,5.98-16.69,5.98-16.69,0,0,98-87.47,200.06-134.67h0s-52.49,27.45-102.38,61.88c-49.84,34.38-79.67,61.84-79.67,61.84Z"/>
              <g>
                <path class="uuid-e82efcc5-7497-47a2-91ee-eddcbdb70e69" d="m1317.93,1417.84s44.87-45.14,63.98-61.06c18.38-15.27,30.05-23.71,30.05-23.71,0,0,17.65-1.14,49.25-2.28,61.2-2.28,144.7,1.32,144.7,1.32,0,0,16.69,21.98,25.08,37.03,12.81,22.89,19.33,38.21,19.33,38.21,0,0-56.96,9.17-119.52,35.21-62.61,25.95-72.33,32.43-72.33,32.43,0,0-71-37.67-140.55-57.14Z"/>
                <path class="uuid-6bc40b30-5552-4066-b084-64da0087806a" d="m1882.08,1765.12h108.76c15.05-16.83,27.5-33.75,27.5-33.75,0,0-8.34-55.77-24.31-93.94-24.49-58.33-54.77-100.19-54.77-100.19,0,0-7.48-2.92-48.2-8.98-41.45-6.15-73.74-7.75-73.74-7.75,0,0,.18,50.03-1.37,81.03-1.46,28.55-9.76,90.48-9.76,90.48,12.31,8.12,46.2,42.23,75.88,73.1Z"/>
                <path class="uuid-3997efe8-8c97-4962-9bd2-20581daa6500" d="m1619.63,1765.12l3.92-15.51s-55.04-48.57-77.12-64.71c-50.34-36.71-108.17-74.74-108.17-74.74,0,0-66.49,39.54-107.39,71.87-40.91,32.29-83.41,77.84-83.41,77.84,0,0,.59,2.19,1.5,5.24h370.66Z"/>
                <path class="uuid-63805188-a3de-45b6-955d-f041a0a20f86" d="m1084.71,1765.12c2.47-4.61,5.11-9.12,7.89-13.32,15.5-23.3,30.6-42.96,30.6-42.96,0,0-1.69-41.41,0-79.21,1.55-35.7,4.47-55.54,10.31-89.43,0,0-23.62,10.67-43.23,20.47-34.07,61.52-54.13,130.88-56.36,204.44h50.8Z"/>
              </g>
              <path class="uuid-1ca131f7-487d-4206-8a91-d1a8aab3c16e" d="m1343.01,1765.12c-29.64-34.89-47.24-60.15-43.19-50.71-26.95,24.72-48.48,47.75-48.48,47.75,0,0,.32,1.19.87,2.97h90.79Z"/>
            </g>
            <path class="uuid-0333dbd9-d9bd-4250-80e8-2c54cb7e80cc" d="m2049.26,1765.12c-7.71-255.79-231.98-460.96-507.7-460.96s-500.04,205.17-507.74,460.96h1015.44Z"/>
          </g>
        </g>
        <path class="uuid-452be6d1-1c33-4d45-8bb2-a6c854dbfa04" d="m2322.79,1273.65c0,93.71-360.9,169.68-806.17,169.68s-806.22-75.97-806.22-169.68,360.95-169.78,806.22-169.78,806.17,76.02,806.17,169.78Z"/>
        <g>
          <g>
            <path class="uuid-41509be7-18ed-4611-8374-27aa8b728667" d="m2049.63,796.05c0,280.6-227.47,508.11-508.06,508.11s-508.11-227.52-508.11-508.11,227.47-508.06,508.11-508.06,508.06,227.47,508.06,508.06Z"/>
            <path class="uuid-13f76023-dd1c-4f52-87ab-35a017aacb86" d="m1868.81,545.32l66.76,222.59,76.52,86.24,37.08-41.04c.22-5.66.45-11.31.45-17.06,0-136.22-53.67-259.8-140.91-351.01l-39.9,100.28Z"/>
            <path class="uuid-b0522a8f-1ddd-43ec-a0d0-dbcc44ff5a14" d="m1410.78,1287.06c41.72,11.12,85.55,17.1,130.79,17.1,31.15,0,61.61-2.97,91.21-8.34l-17.15-35.48-203.07,5.56-1.77,21.16Z"/>
            <path class="uuid-9b7c2586-64e0-480d-bb93-449f6a9811b7" d="m2003.8,862.49l-65.4,179.44,7.02,62.29c62.15-81.31,100.19-181.96,103.75-291.36l-45.38,49.62Z"/>
            <path class="uuid-8eb3032f-4f87-475a-9932-dd971d82531c" d="m1945.97,1103.6l-7.57-61.66-125.27,9.72-178.03,132.15-30.37,88.33,21.62,24.86c129.83-21.85,243.07-92.9,319.63-193.4Z"/>
            <path class="uuid-33d3bebe-7e89-49fb-8b3d-8617cf85a879" d="m1134.33,1028.03l-50.66-11.59c63.66,132.07,182.77,232.26,327.11,270.61l1.77-21.16,1.37-5.56-73.74-72.33-205.85-159.98Z"/>
            <path class="uuid-80bd2ec5-51bb-4c04-887b-e8d3549b0839" d="m1059.18,754l95.99-250.41-14.55-19.43c-61.34,78.71-100.01,175.84-106.16,281.78l24.72-11.95Z"/>
            <path class="uuid-50d85c2e-c597-4a7c-9d31-d0d758d7a4ed" d="m1377.3,315.3l-15.19,5.38-3.83,16.69,256.65,4.15,60.29-35.66c-42.59-11.58-87.42-17.88-133.66-17.88-57.46,0-112.68,9.71-164.26,27.32Z"/>
            <path class="uuid-fc8b7532-06ce-4b5f-b285-ab3a4f3c4d55" d="m1992.17,831.66c9.26,8.16,17.83,14.46,24.72,17.15l1.46-1.55c-6.57-9.62-29.09-42.28-42.05-56.77-15.32-17.1-39.08-41.32-39.08-41.32,0,0-8.53-50.21-20.84-85.96-12.31-35.75-46.42-118.21-46.42-118.21,0,0,29.37,87.29,36.03,119.3,1,4.93,2.28,10.63,3.6,16.65l25.99,86.96,56.6,63.75Z"/>
            <path class="uuid-4f50e594-69a9-4608-9812-695aa01e231b" d="m1863.25,530.73s34.79,77.21,47.29,124.5c12.54,47.29,23.67,89.01,25.03,127.96,1.37,38.95-115.46,122.45-115.46,122.45,0,0-172.51-72.33-226.74-82.08-54.22-9.76-59.79-186.38-59.79-186.38,0,0,111.23-132.16,176.67-189.21,65.35-57,153,82.77,153,82.77Z"/>
            <path class="uuid-e85b471f-9215-427d-847d-ba6433a82c8e" d="m1607.82,826.83c5.97,1.6,12.58,3.51,19.79,5.74l3.61-4.51-54.64-237.82-5.24,3.1c-1.59,1.83-3.19,3.65-4.74,5.43l41.22,228.06Z"/>
            <path class="uuid-8497d1f2-607b-4426-bc9d-ea8d93726bad" d="m1281.08,803.35s-141.19,54.27-175.98,76.52c-34.8,22.26,14.96,159.11,14.96,159.11,0,0,131.11,125.36,247.94,164.31,116.88,38.95,97.41-65.35,97.41-65.35,0,0-33.43-229.52-33.43-247.62s-150.9-86.96-150.9-86.96Z"/>
            <path class="uuid-24723121-5b1c-4279-9723-b0315f6eb8ef" d="m1799.17,896.97c5.93-1.14,10.17-2.78,8.17-5.25-5.2-6.34-36.85-20.11-88.2-40.58-15.69-6.2-89.75-29.78-89.75-29.78,0,0-11.54-38.72-24.17-88.56-12.13-47.79-34.75-129.56-36.62-136.31-.04.05-.14.14-.22.23l-5.2,56.05,43.46,173.79c49.75,12.82,149.26,52.67,192.53,70.42Z"/>
            <path class="uuid-fc8b7532-06ce-4b5f-b285-ab3a4f3c4d55" d="m1810.94,1053.39l-175.84,130.42-30.37,88.33,21.62,24.86.05-.05-18.56-22.94s18.74-26.23,26.22-38.58c7.48-12.22,21.48-39.67,21.48-39.67,0,0,48.02-32.1,89.06-62.84,31.51-23.48,70.91-57.51,75.43-64.21,2.37-3.65-3.33-10.17-9.07-15.32Z"/>
            <path class="uuid-24723121-5b1c-4279-9723-b0315f6eb8ef" d="m1436.95,971.53s1.19,63.71,4.52,88.84c3.28,25.08,9.48,56.36,9.48,56.36,0,0-31.83,20.11-67.54,36.3-33.61,15.18-61.79,27.77-65.12,29.23.14.09.32.18.41.23l76.93,6.29,64.8-59.74,2.88-5.47c-4.2-28.91-13.82-95.95-21.3-150.99-1.69-1.37-3.38-1.83-5.06-1.05Z"/>
            <path class="uuid-03fb111b-9b95-42a5-a0d1-4a600d0fca7b" d="m1435.95,940.89s4.79,78.21,11.17,118.43c8.53,53.59,18.56,86.33,18.56,86.33l175.48,53.72s155.32-99,197.05-147.7c41.72-48.66-9.76-154.37-9.76-154.37l-13.95-5.57s-128.92-57.6-266.69-81.22c-137.67-23.67-117.43,97-111.86,130.38Z"/>
            <path class="uuid-fc8b7532-06ce-4b5f-b285-ab3a4f3c4d55" d="m1647.27,1195.07s-63.66-18.92-92.26-31.28c-28.73-12.22-91.2-44.64-91.2-44.64,0,0-5.61-42.78-8.21-59.92-3.74-24.58-7.48-77.43-7.48-77.43,0,0,39.08-32.38,86.74-71.1,40.5-32.88,77.34-72.87,87.56-84.23-5.29-1.32-10.62-2.65-16.01-3.88-34.98,7.11-87.51,49.43-87.51,49.43l-82.22,80.49c1.59,23.21,5.56,76.07,10.44,106.8,8.53,53.59,18.56,86.33,18.56,86.33l151.54,46.38,30.05,3.05Z"/>
            <path class="uuid-fc8b7532-06ce-4b5f-b285-ab3a4f3c4d55" d="m1946.38,1102.91l-1.28-47.38s29-49.16,48.02-98.28c15.64-40.59,20.79-76.71,23.39-94.58,1.1-7.66.05-11.26-1.09-12.91l-5.74,6.25-8.76,14.14-62.52,171.79,5.38,48.07c1.1,4.88,1.91,9.44,2.51,13.09.05-.05.09-.09.09-.18Z"/>
            <path class="uuid-1953a60e-a44e-40c6-8e88-a22033e9c11c" d="m1658.49,301.62h-.19l-45.65,36.26s-46.2-11.54-106.62-14.5c-60.52-3.01-102.74,6.71-102.74,6.71,7.07,3.83,58.97,7.3,109.63,9.81l102.01,1.64,6.79-4.01,36.76-35.89Z"/>
            <path class="uuid-e85b471f-9215-427d-847d-ba6433a82c8e" d="m1868.26,546.37s45.83,95.22,62.89,196.78c-4.6-27.41-12.27-56.41-20.61-87.92-12.5-47.29-47.29-124.5-47.29-124.5,0,0-18.74-29.91-45.46-56.41l-98.32-32.93c-3.05,1.83-6.2,3.92-9.21,6.57-42.36,36.98-104.02,105.43-142.19,149.08l1.78,7.16,118.93-109.99s38.67,7.61,67.54,15.37c28.91,7.75,111.95,36.8,111.95,36.8Z"/>
            <path class="uuid-24723121-5b1c-4279-9723-b0315f6eb8ef" d="m1821.48,941.98c-7.48-29.05-15.28-53.03-15.28-53.03,0,0,4.1,64.57,4.88,99.55.73,34.98-1.5,81.17-1.5,81.17,0,0-48.02,41.27-65.89,55.09-17.88,13.77-96.41,70.32-96.41,70.32.23,0,.5-.04.73-.04,26.91-17.47,127.1-83.27,174.8-127.64,1.05-17.56,5.34-99.55-1.32-125.41Z"/>
            <path class="uuid-c75e9b85-04b2-4d9a-9552-3933872f492f" d="m1276.06,454.71s68.31,147.3,89.2,198.79c20.84,51.44-80.63,147.34-80.63,147.34,0,0-165.63,72.1-176.71,73.46-11.17,1.41-57.05-105.02-57.05-105.02l8.3-30.6s19.51-168.32,119.7-265.68c100.1-97.36,97.18-18.29,97.18-18.29Z"/>
            <path class="uuid-0afc239c-0439-40c0-af0f-953861afb6c3" d="m1381.91,336.64l22.3-6.93c117.66-14.18,191.95,7.21,249.41,21.57,8.3,2.1,44.41,123.27,44.41,123.27l-154.36,145.01-186.75,12.54-80.85-177.4,105.84-118.07Z"/>
            <path class="uuid-e85b471f-9215-427d-847d-ba6433a82c8e" d="m1404.2,329.71l-22.3,6.93-105.84,118.07,63.8,140.05-.05-.59-48.57-128.46s27.36-36.26,41.32-53.59c13.95-17.33,71.64-82.4,71.64-82.4Z"/>
            <path class="uuid-24723121-5b1c-4279-9723-b0315f6eb8ef" d="m1884.32,1046.14l-3.33.82s-62.93,12.45-63.66,25.58c0,0,35.85-.27,57-2.55,21.25-2.19,62.16-9.62,62.16-9.62,0,0,7.39,33.43,9.17,43.55.09-.09.18-.23.32-.32l-7.57-61.66-54.09,4.2Z"/>
            <path class="uuid-24723121-5b1c-4279-9723-b0315f6eb8ef" d="m1249.38,815.06l-125.86,49.85s-14.59-17.55-31.65-46.15c-15.23-25.67-27.64-66.26-32.7-79.94l-5.47,19.98c1.05,10.39,4.19,22.84,8.53,35.89,14.32,31.42,41.41,81.27,49.07,80.26,7.84-.92,88.6-37.53,137.9-58.74l.18-1.14Z"/>
            <path class="uuid-f846a94c-3a63-4137-b3dc-74c8423aecec" d="m1276.06,454.71v-.55l-4.74.23-98.91,25.13c-74.79,77.71-102.11,194.54-110.18,240.01,3.42-17.14,9.58-41.13,20.38-73.05,25.67-75.57,62.07-124.08,62.07-124.08,0,0,16.14-9.17,40.77-18.43,37.12-13.95,92.66-33.47,92.66-33.47l59.33,118.93c-27.36-61.29-61.38-134.71-61.38-134.71Z"/>
            <path class="uuid-bd559625-54a0-46b4-8416-08be27403237" d="m1138.07,1050.65s-9.03-51.44-11.54-96.41c-1.23-21.93,1.96-80.95,1.96-80.95,0,0,101.93-47.84,120.71-57.09.64-.32,1.05-.59,1.27-.82-43.5,17.24-119.25,48.93-143.79,64.62l-1.73,6.93,8.16,127.6.96,6.52c3.47,10.99,5.98,17.92,5.98,17.92,0,0,98,93.67,200.06,144.2h0s-52.49-29.41-102.38-66.26c-49.84-36.84-79.67-66.26-79.67-66.26Z"/>
            <polygon class="uuid-f1989ab5-ca55-426e-88c5-bef9a14774ee" points="1338.72 591.25 1559.76 604.47 1689.91 482.16 1691.6 468.89 1614.94 341.52 1677.05 483.03 1567.33 593.3 1338.72 591.25"/>
            <g>
              <path class="uuid-c76a83f0-8a96-451c-ac21-3d962f5e3811" d="m1317.93,1182.44s44.87,48.29,63.98,65.35c18.38,16.37,30.05,25.4,30.05,25.4,0,0,17.65,1.19,49.25,2.46,61.2,2.37,144.7-1.41,144.7-1.41,0,0,16.69-23.58,25.08-39.63,12.81-24.53,19.33-40.95,19.33-40.95,0,0-56.96-9.85-119.52-37.67-62.61-27.82-72.33-34.75-72.33-34.75,0,0-71,40.31-140.55,61.2Z"/>
              <path class="uuid-25b46d09-589c-4398-a514-818f2952653c" d="m1806.2,888.94s8.3,66.26,9.76,96.81c1.55,33.2,1.37,86.78,1.37,86.78,0,0,32.29-1.73,73.74-8.39,40.72-6.43,48.2-9.53,48.2-9.53,0,0,30.28-44.83,54.77-107.25,15.96-40.91,24.31-100.6,24.31-100.6,0,0-17.92-26.23-36.85-46.88-21.84-23.81-48.43-47.02-48.43-47.02,0,0-103.2,119.34-126.87,136.08Z"/>
              <path class="uuid-71fdd2ae-57c1-438d-a47f-bb41853be8af" d="m1136.02,490.1l5.24,27.41,26.5-11.13c26.36-11.08,112.64-40.36,112.64-40.36,0,0,23.35-31.01,44.51-55.64,31.69-36.76,79.3-80.67,79.3-80.67l-38.9-10.31c-91.89,34.02-171.28,93.85-229.29,170.69Z"/>
              <path class="uuid-7644502b-11be-496b-8e11-acff478b794b" d="m1338.72,591.25s-29.87,59.79-53.49,114.87c-23.58,55.04-37.76,110.13-37.76,110.13,0,0,42.5,48.75,83.41,83.41,40.91,34.57,107.39,76.93,107.39,76.93,0,0,57.83-40.77,108.17-80.08,22.07-17.24,77.12-69.27,77.12-69.27l-55.09-231.26-229.75-4.74Z"/>
              <path class="uuid-4f4b8f36-8910-41b1-93d5-1942178377b4" d="m1658.49,301.67l-43.55,39.86s23.31,42.91,42.46,79.99c20.29,39.49,29.46,63.75,29.46,63.75,0,0,51.21,10.04,88.74,22.53,37.53,12.49,94.35,37.21,94.35,37.21,0,0,18.33-32.33,25.26-47.65,4.93-10.76,12.54-29.91,17.46-48.11-67.17-71.92-155.1-124.22-254.19-147.57Z"/>
              <path class="uuid-008f687b-8bc8-406c-b45e-1206136e4b10" d="m1090.28,1029.54c19.61,10.49,43.23,21.89,43.23,21.89-5.84-36.3-8.76-57.51-10.31-95.77-1.69-40.5,0-84.82,0-84.82,0,0-15.1-20.98-30.6-45.92-21.3-34.25-33.43-86.24-33.43-86.24,0,0-5.52,6.98-15.28,20.84-3.6,5.2-7.02,11.36-9.94,17.05-.23,6.43-.5,12.91-.5,19.47,0,84.23,20.66,163.58,56.82,233.49Z"/>
            </g>
            <path class="uuid-e0b92dc8-df4e-4719-b566-180f5faea400" d="m1445.89,704.16c45.01-35.02,100.47-66.67,126.55-75.7l-7.12-30.05-224.69-4.65s-29.27,58.51-52.31,112.36c-23.12,53.86-36.98,107.67-36.98,107.67,0,0,21.52,24.72,48.48,51.12-7.75,19.34,62.66-95.81,146.07-160.75Z"/>
          </g>
          <path class="uuid-57e883d8-bf05-4131-a1bc-c772f5383ddb" d="m2049.63,796.05c0,280.6-227.47,508.11-508.06,508.11s-508.11-227.52-508.11-508.11,227.47-508.06,508.11-508.06,508.06,227.47,508.06,508.06Z"/>
        </g>
      </g>
    </g>
  </g>
</svg>